 <svg  version="1.0" xmlns="http://www.w3.org/2000/svg"  width="196.000000pt" height="258.000000pt" viewBox="0 0 196.000000 258.000000"    preserveAspectRatio="xMidYMid meet">  
<g transform="translate(0.000000,258.000000) scale(0.100000,-0.100000)" fill="#2f9e40" stroke="none">
  <path d="M 260 2483 C 199 2461 118 2379 97 2316 C 61 2211 87 2097 162 2023 C 254 1933 375 1914 489 1971 C 593 2023 646 2118 638 2238 C 632 2317 613 2359 557 2418 C 484 2493 364 2519 260 2483 Z" style="paint-order: stroke markers; fill-rule: nonzero; fill: rgb(205, 25, 30);"></path>
  <path d="M 740 2460 C 721 2441 720 2427 720 2222 C 720 2041 723 2001 736 1982 C 751 1960 755 1960 980 1960 C 1205 1960 1209 1960 1224 1982 C 1237 2001 1240 2041 1240 2222 C 1240 2427 1239 2441 1220 2460 C 1201 2479 1187 2480 980 2480 C 773 2480 759 2479 740 2460 Z" style="paint-order: fill;"></path>
  <path d="M 1360 2460 C 1341 2441 1340 2427 1340 2217 C 1340 2013 1342 1992 1358 1977 C 1374 1962 1406 1960 1598 1960 C 1807 1960 1821 1961 1840 1980 C 1859 1999 1860 2013 1860 2220 C 1860 2427 1859 2441 1840 2460 C 1821 2479 1807 2480 1600 2480 C 1393 2480 1379 2479 1360 2460 Z" style="paint-order: fill;"></path>
  <path d="M 120 1840 C 101 1821 100 1807 100 1600 C 100 1393 101 1379 120 1360 C 139 1341 153 1340 358 1340 C 539 1340 579 1343 598 1356 C 620 1371 620 1375 620 1596 C 620 1807 619 1821 600 1840 C 581 1859 567 1860 360 1860 C 153 1860 139 1859 120 1840 Z" style="paint-order: fill;"></path>
  <path d="M 740 1840 C 721 1821 720 1807 720 1600 C 720 1393 721 1379 740 1360 C 759 1341 773 1340 980 1340 C 1187 1340 1201 1341 1220 1360 C 1239 1379 1240 1393 1240 1600 C 1240 1807 1239 1821 1220 1840 C 1201 1859 1187 1860 980 1860 C 773 1860 759 1859 740 1840 Z" style="paint-order: fill;"></path>
  <path d="M 120 1220 C 101 1201 100 1187 100 980 C 100 773 101 759 120 740 C 139 721 153 720 360 720 C 567 720 581 721 600 740 C 619 759 620 773 620 984 C 620 1205 620 1209 598 1224 C 579 1237 539 1240 358 1240 C 153 1240 139 1239 120 1220 Z" style="paint-order: fill;"></path>
  <path d="M 740 1220 C 721 1201 720 1187 720 980 C 720 773 721 759 740 740 C 759 721 773 720 980 720 C 1187 720 1201 721 1220 740 C 1239 759 1240 773 1240 980 C 1240 1187 1239 1201 1220 1220 C 1201 1239 1187 1240 980 1240 C 773 1240 759 1239 740 1220 Z" style="paint-order: fill;"></path>
  <path d="M 1362 1224 C 1340 1209 1340 1205 1340 984 C 1340 773 1341 759 1360 740 C 1379 721 1393 720 1600 720 C 1807 720 1821 721 1840 740 C 1859 759 1860 773 1860 980 C 1860 1187 1859 1201 1840 1220 C 1821 1239 1807 1240 1602 1240 C 1421 1240 1381 1237 1362 1224 Z" style="paint-order: fill;"></path>
  <path d="M 120 600 C 101 581 100 567 100 360 C 100 153 101 139 120 120 C 139 101 153 100 360 100 C 567 100 581 101 600 120 C 619 139 620 153 620 363 C 620 567 618 588 602 603 C 586 618 554 620 362 620 C 153 620 139 619 120 600 Z" style="paint-order: fill;"></path>
  <path d="M 736 598 C 723 579 720 539 720 358 C 720 153 721 139 740 120 C 759 101 773 100 980 100 C 1187 100 1201 101 1220 120 C 1239 139 1240 153 1240 358 C 1240 539 1237 579 1224 598 C 1209 620 1205 620 980 620 C 755 620 751 620 736 598 Z" style="paint-order: fill;"></path>
</g>
 </svg> 
 