<?xml version="1.0" standalone="no"?>
<!DOCTYPE svg PUBLIC "-//W3C//DTD SVG 20010904//EN"
 "http://www.w3.org/TR/2001/REC-SVG-20010904/DTD/svg10.dtd">
<svg version="1.0" xmlns="http://www.w3.org/2000/svg"
 width="196.000000pt" height="258.000000pt" viewBox="0 0 196.000000 258.000000"
 preserveAspectRatio="xMidYMid meet">

<g transform="translate(0.000000,258.000000) scale(0.100000,-0.100000)"
fill="#000000" stroke="none">
<path d="M266 2484 c-70 -22 -149 -103 -170 -174 -33 -110 -9 -214 66 -287 60
-57 102 -75 184 -81 61 -4 80 -1 125 20 69 31 116 78 147 147 21 45 24 64 20
125 -6 82 -24 124 -81 184 -72 74 -181 99 -291 66z"/>
<path d="M741 2456 c-8 -9 -11 -83 -9 -247 l3 -234 245 0 245 0 3 234 c2 164
-1 238 -9 247 -9 11 -58 14 -239 14 -181 0 -230 -3 -239 -14z m474 -236 l0
-235 -235 0 -235 0 -3 225 c-1 123 0 230 3 237 3 11 54 13 237 11 l233 -3 0
-235z"/>
<path d="M1361 2456 c-8 -9 -11 -83 -9 -247 l3 -234 234 -3 c164 -2 238 1 247
9 19 16 21 458 2 477 -19 19 -461 17 -477 -2z m474 -236 l0 -235 -235 0 -235
0 -3 225 c-1 123 0 230 3 237 3 11 54 13 237 11 l233 -3 0 -235z"/>
<path d="M122 1838 c-19 -19 -17 -461 2 -477 9 -8 83 -11 247 -9 l234 3 3 239
c2 185 -1 241 -10 248 -22 13 -462 10 -476 -4z m473 -238 l0 -235 -235 0 -235
0 -3 225 c-1 123 0 230 3 237 3 11 54 13 237 11 l233 -3 0 -235z"/>
<path d="M742 1838 c-17 -17 -17 -459 0 -476 17 -17 459 -17 476 0 17 17 17
459 0 476 -17 17 -459 17 -476 0z m473 -238 l0 -235 -235 0 -235 0 -3 225 c-1
123 0 230 3 237 3 11 54 13 237 11 l233 -3 0 -235z"/>
<path d="M122 1218 c-17 -17 -17 -459 0 -476 14 -14 454 -17 476 -4 9 7 12 63
10 248 l-3 239 -235 3 c-175 2 -239 -1 -248 -10z m473 -238 l0 -235 -235 0
-235 0 -3 225 c-1 123 0 230 3 237 3 11 54 13 237 11 l233 -3 0 -235z"/>
<path d="M742 1218 c-17 -17 -17 -459 0 -476 17 -17 459 -17 476 0 17 17 17
459 0 476 -17 17 -459 17 -476 0z m473 -238 l0 -235 -235 0 -235 0 -3 225 c-1
123 0 230 3 237 3 11 54 13 237 11 l233 -3 0 -235z"/>
<path d="M1357 1223 c-4 -3 -7 -113 -7 -244 0 -207 2 -238 16 -243 31 -12 459
-7 472 6 17 17 17 459 0 476 -13 13 -469 18 -481 5z m478 -243 l0 -235 -235 0
-235 0 -3 225 c-1 123 0 230 3 237 3 11 54 13 237 11 l233 -3 0 -235z"/>
<path d="M122 598 c-17 -17 -17 -459 0 -476 19 -19 461 -17 477 2 8 9 11 83 9
247 l-3 234 -235 3 c-175 2 -239 -1 -248 -10z m473 -238 l0 -235 -235 0 -235
0 -3 225 c-1 123 0 230 3 237 3 11 54 13 237 11 l233 -3 0 -235z"/>
<path d="M737 604 c-13 -13 -8 -469 5 -482 19 -19 461 -17 477 2 8 9 11 83 9
247 l-3 234 -241 3 c-132 1 -243 -1 -247 -4z m478 -244 l0 -235 -235 0 -235 0
-3 225 c-1 123 0 230 3 237 3 11 54 13 237 11 l233 -3 0 -235z"/>
</g>
</svg>
